<?xml version="1.0" encoding="UTF-8" standalone="no"?>
<svg
   viewBox="0 0 512 512"
   version="1.1"
   id="svg4"
   sodipodi:docname="clock.svg"
   inkscape:version="1.2.1 (9c6d41e410, 2022-07-14)"
   xmlns:inkscape="http://www.inkscape.org/namespaces/inkscape"
   xmlns:sodipodi="http://sodipodi.sourceforge.net/DTD/sodipodi-0.dtd"
   xmlns="http://www.w3.org/2000/svg"
   xmlns:svg="http://www.w3.org/2000/svg">
  <defs
     id="defs8" />
  <sodipodi:namedview
     id="namedview6"
     pagecolor="#ffffff"
     bordercolor="#000000"
     borderopacity="0.25"
     inkscape:showpageshadow="2"
     inkscape:pageopacity="0.0"
     inkscape:pagecheckerboard="0"
     inkscape:deskcolor="#d1d1d1"
     showgrid="false"
     inkscape:zoom="1.1035156"
     inkscape:cx="256.4531"
     inkscape:cy="256.90619"
     inkscape:window-width="1366"
     inkscape:window-height="748"
     inkscape:window-x="-8"
     inkscape:window-y="-8"
     inkscape:window-maximized="1"
     inkscape:current-layer="svg4" />
  <path
     d="M256 512C114.6 512 0 397.4 0 256C0 114.6 114.6 0 256 0C397.4 0 512 114.6 512 256C512 397.4 397.4 512 256 512zM232 256C232 264 236 271.5 242.7 275.1L338.7 339.1C349.7 347.3 364.6 344.3 371.1 333.3C379.3 322.3 376.3 307.4 365.3 300L280 243.2V120C280 106.7 269.3 96 255.1 96C242.7 96 231.1 106.7 231.1 120L232 256z"
     id="path2" />
  <path
     style="fill:#ffffff;stroke-width:0.906195"
     d="M 233.55473,510.6543 C 135.8733,501.17174 53.637301,439.28417 17.791783,348.27962 c -22.7224008,-57.6876 -22.7224008,-126.87164 0,-184.55924 C 48.243962,86.408428 112.97718,28.974997 192.66317,8.5687582 216.2532,2.5277494 228.84848,1.0282262 256,1.0282262 c 27.15152,0 39.7468,1.4995232 63.33683,7.540532 71.02583,18.1885188 131.08713,66.3085958 164.05535,131.4383218 19.28747,38.103 27.70163,73.33495 27.70163,115.99292 0,42.94175 -8.56102,78.54732 -28.00975,116.49365 -37.61706,73.39442 -108.17717,124.02042 -190.01455,136.33305 -14.24162,2.14268 -46.16932,3.12313 -59.51478,1.8276 z M 362.18934,342.00883 c 4.30622,-2.08461 9.27467,-7.37022 11.72726,-12.47585 2.06918,-4.30751 2.65898,-12.61775 1.2084,-17.02633 -2.75188,-8.36347 -3.64403,-9.07645 -50.44388,-40.31264 L 280.01416,242.3814 v -63.5422 c 0,-46.46854 -0.28947,-64.50835 -1.07728,-67.13785 -0.59251,-1.97761 -2.85259,-5.57022 -5.02241,-7.98357 -11.75456,-13.073898 -34.06679,-9.583109 -40.94509,6.40593 l -1.9876,4.62031 0.27548,73.12003 0.27548,73.12002 2.71859,5.43717 2.71858,5.43717 50.29381,33.70694 c 27.66159,18.53882 52.31086,34.74838 54.77615,36.02124 5.86412,3.02772 14.39787,3.20654 20.14947,0.42224 z"
     id="path183" />
  <path
     style="fill:#000000;stroke-width:0.906195"
     d="m 344.74198,341.71155 c -1.53104,-0.6667 -26.092,-16.75465 -54.57993,-35.75098 -57.06754,-38.05382 -55.80947,-37.01389 -57.30661,-47.3694 -0.45824,-3.16957 -0.84136,-36.80685 -0.85138,-74.74953 -0.0202,-76.50235 -0.35143,-72.16818 6.05738,-79.26196 5.15664,-5.707794 9.46646,-7.574841 17.48546,-7.574841 7.66133,0 12.11002,1.786183 17.24972,6.925891 6.58177,6.58177 6.26926,2.86599 6.29144,74.80635 l 0.0199,64.55655 45.08298,30.14079 c 41.26982,27.59146 45.31294,30.51802 47.80177,34.60071 2.39629,3.93087 2.71666,5.27455 2.70081,11.32743 -0.0127,4.84341 -0.49521,7.75153 -1.63711,9.8668 -2.59176,4.80099 -8.01803,10.28947 -11.93783,12.07468 -4.28413,1.95114 -12.36977,2.15235 -16.3766,0.40751 z"
     id="path254" />
</svg>
