<?xml version="1.0" encoding="UTF-8" standalone="no"?>
<svg
   fill="none"
   height="24"
   stroke-width="1.5"
   viewBox="0 0 24 24"
   width="24"
   version="1.1"
   id="svg207"
   sodipodi:docname="facebook.svg"
   inkscape:version="1.2.1 (9c6d41e410, 2022-07-14)"
   xmlns:inkscape="http://www.inkscape.org/namespaces/inkscape"
   xmlns:sodipodi="http://sodipodi.sourceforge.net/DTD/sodipodi-0.dtd"
   xmlns="http://www.w3.org/2000/svg"
   xmlns:svg="http://www.w3.org/2000/svg">
  <defs
     id="defs211" />
  <sodipodi:namedview
     id="namedview209"
     pagecolor="#ffffff"
     bordercolor="#000000"
     borderopacity="0.25"
     inkscape:showpageshadow="2"
     inkscape:pageopacity="0.0"
     inkscape:pagecheckerboard="0"
     inkscape:deskcolor="#d1d1d1"
     showgrid="false"
     inkscape:zoom="23.541667"
     inkscape:cx="11.978761"
     inkscape:cy="12.042478"
     inkscape:window-width="1366"
     inkscape:window-height="748"
     inkscape:window-x="-8"
     inkscape:window-y="-8"
     inkscape:window-maximized="1"
     inkscape:current-layer="svg207" />
  <path
     d="M21 8V16C21 18.7614 18.7614 21 16 21H8C5.23858 21 3 18.7614 3 16V8C3 5.23858 5.23858 3 8 3H16C18.7614 3 21 5.23858 21 8Z"
     stroke="currentColor"
     stroke-linecap="round"
     stroke-linejoin="round"
     id="path201" />
  <path
     d="M11 21C11 18 11 15 11 12C11 9.8125 11.5 8 15 8"
     stroke="currentColor"
     stroke-linecap="round"
     stroke-linejoin="round"
     id="path203" />
  <path
     d="M9 13H11H15"
     stroke="currentColor"
     stroke-linecap="round"
     stroke-linejoin="round"
     id="path205" />
  <path
     style="fill:#ffffff;stroke-width:0.0637168"
     d="M 7.3911504,21.699274 C 7.0885219,21.666398 6.390682,21.504763 6.0990254,21.39999 4.1264984,20.69139 2.719289,19.011408 2.3509619,16.925405 2.2780541,16.512496 2.2725664,16.167713 2.2725664,12 c 0,-4.1677134 0.00549,-4.5124957 0.078396,-4.9254053 C 2.7736745,4.6805819 4.5198472,2.8844911 6.9238938,2.3709358 7.2604252,2.2990455 7.6052937,2.2938053 12,2.2938053 c 4.394706,0 4.739575,0.00524 5.076106,0.07713 2.097936,0.4481635 3.720093,1.8897798 4.37233,3.8857043 0.282867,0.8656033 0.278998,0.7859603 0.278998,5.7433604 0,4.167712 -0.0055,4.512495 -0.0784,4.925404 -0.137623,0.779422 -0.422605,1.525403 -0.814751,2.132723 -0.839028,1.299414 -2.043014,2.14952 -3.588269,2.533593 L 16.8,21.702579 l -4.630088,0.0064 c -2.5465492,0.0035 -4.6969916,-8.45e-4 -4.7787616,-0.0097 z M 10.279646,17.012389 V 13.741593 L 9.6318584,13.741338 C 9.2755752,13.741211 8.9129828,13.721358 8.8260977,13.697228 8.2621916,13.540616 8.0938258,12.826311 8.5335963,12.456268 8.7325499,12.28886 8.9154924,12.255348 9.6318584,12.255086 l 0.6477876,-2.19e-4 8.28e-4,-0.499115 c 0.0015,-0.886254 0.154604,-1.725343 0.424755,-2.3274578 0.367505,-0.8190996 1.090964,-1.4758649 1.985256,-1.8022411 0.609252,-0.2223496 1.139021,-0.3102389 1.900665,-0.3153222 0.647775,-0.00432 0.686165,1.274e-4 0.81866,0.094616 0.303649,0.2165781 0.392035,0.6403229 0.201409,0.965602 -0.14809,0.2526974 -0.379553,0.3580082 -0.789233,0.3590837 -0.173686,4.545e-4 -0.5165,0.028127 -0.76181,0.061491 -0.809104,0.1100436 -1.251782,0.2936729 -1.637275,0.679166 -0.45305,0.4530499 -0.631405,1.0160794 -0.683485,2.1576294 l -0.02859,0.626548 1.652549,2.55e-4 c 1.005687,1.28e-4 1.714385,0.01741 1.810522,0.04411 0.717038,0.199141 0.717038,1.198891 0,1.398031 -0.09609,0.02669 -0.802797,0.04397 -1.80399,0.04411 l -1.646017,2.19e-4 v 3.270796 3.270797 h 2.199344 c 1.257239,0 2.353531,-0.01885 2.559292,-0.04401 1.344363,-0.164362 2.480781,-0.89482 3.178264,-2.042902 0.216403,-0.356206 0.359545,-0.696299 0.482716,-1.146893 l 0.0972,-0.355579 V 12 7.3061947 L 20.14351,6.9506158 C 19.720433,5.4028841 18.59963,4.2795001 17.054867,3.8548602 L 16.630088,3.7380929 H 12 7.3699115 L 6.9451327,3.8548602 C 5.3867921,4.2832323 4.2350083,5.453088 3.8341284,7.0146771 3.7648755,7.2844452 3.759292,7.6563921 3.759292,12 v 4.693805 l 0.097198,0.355579 c 0.3418819,1.2507 1.1232629,2.216205 2.2390848,2.766701 0.8012547,0.395303 1.1744271,0.454304 2.920354,0.461727 l 1.2637172,0.0054 z"
     id="path213" />
</svg>
