<?xml version="1.0" encoding="UTF-8" standalone="no"?>
<svg
   fill="none"
   height="24"
   stroke-width="1.5"
   viewBox="0 0 24 24"
   width="24"
   version="1.1"
   id="svg11"
   sodipodi:docname="google.svg"
   inkscape:version="1.2.1 (9c6d41e410, 2022-07-14)"
   xmlns:inkscape="http://www.inkscape.org/namespaces/inkscape"
   xmlns:sodipodi="http://sodipodi.sourceforge.net/DTD/sodipodi-0.dtd"
   xmlns="http://www.w3.org/2000/svg"
   xmlns:svg="http://www.w3.org/2000/svg">
  <defs
     id="defs15" />
  <sodipodi:namedview
     id="namedview13"
     pagecolor="#ffffff"
     bordercolor="#000000"
     borderopacity="0.25"
     inkscape:showpageshadow="2"
     inkscape:pageopacity="0.0"
     inkscape:pagecheckerboard="0"
     inkscape:deskcolor="#d1d1d1"
     showgrid="false"
     inkscape:zoom="23.541667"
     inkscape:cx="11.978761"
     inkscape:cy="12.042478"
     inkscape:window-width="1366"
     inkscape:window-height="748"
     inkscape:window-x="-8"
     inkscape:window-y="-8"
     inkscape:window-maximized="1"
     inkscape:current-layer="svg11" />
  <path
     d="M15.5475 8.30327C14.6407 7.49361 13.4329 7 12.1089 7C9.28696 7 7 9.23899 7 12C7 14.761 9.28696 17 12.1089 17C15.5781 17 16.86 14.4296 17 12.4167H12.841"
     stroke="currentColor"
     stroke-width="1.5"
     id="path7" />
  <path
     d="M21 8V16C21 18.7614 18.7614 21 16 21H8C5.23858 21 3 18.7614 3 16V8C3 5.23858 5.23858 3 8 3H16C18.7614 3 21 5.23858 21 8Z"
     stroke="currentColor"
     stroke-linecap="round"
     stroke-linejoin="round"
     id="path9" />
  <path
     style="fill:#ffffff;stroke-width:0.0637168"
     d="M 7.3911504,21.699274 C 7.0885219,21.666398 6.390682,21.504763 6.0990254,21.39999 4.1264984,20.69139 2.719289,19.011408 2.3509619,16.925405 2.2780541,16.512496 2.2725664,16.167713 2.2725664,12 c 0,-4.1677134 0.00549,-4.5124957 0.078396,-4.9254053 C 2.7736745,4.6805819 4.5198472,2.8844911 6.9238938,2.3709358 7.2604252,2.2990455 7.6052937,2.2938053 12,2.2938053 c 4.394706,0 4.739575,0.00524 5.076106,0.07713 2.097936,0.4481635 3.720093,1.8897798 4.37233,3.8857043 0.282867,0.8656033 0.278998,0.7859603 0.278998,5.7433604 0,4.167712 -0.0055,4.512495 -0.0784,4.925404 -0.137623,0.779422 -0.422605,1.525403 -0.814751,2.132723 -0.839028,1.299414 -2.043014,2.14952 -3.588269,2.533593 L 16.8,21.702579 l -4.630088,0.0064 c -2.5465492,0.0035 -4.6969916,-8.45e-4 -4.7787616,-0.0097 z M 16.48253,20.239179 c 1.344363,-0.164362 2.480781,-0.89482 3.178264,-2.042902 0.216403,-0.356206 0.359545,-0.696299 0.482716,-1.146893 l 0.0972,-0.355579 V 12 7.3061947 L 20.14351,6.9506158 C 19.720433,5.4028841 18.59963,4.2795001 17.054867,3.8548602 L 16.630088,3.7380929 H 12 7.3699115 L 6.9451327,3.8548602 C 5.3867921,4.2832323 4.2350083,5.453088 3.8341284,7.0146771 3.7648755,7.2844452 3.759292,7.6563921 3.759292,12 v 4.693805 l 0.097198,0.355579 c 0.4735811,1.732493 1.8662273,2.965264 3.5983769,3.185286 0.4320322,0.05488 8.5823861,0.05895 9.0276631,0.0045 z"
     id="path190" />
  <path
     style="fill:#ffffff;stroke-width:0.0637168"
     d="M 11.553982,17.704995 C 9.217883,17.454817 7.2529707,15.890759 6.5481126,13.720354 6.0486588,12.182432 6.2642388,10.410636 7.1173602,9.0418592 7.976606,7.6632558 9.3138384,6.7423845 10.976111,6.3845705 c 0.602361,-0.1296619 1.691239,-0.1304332 2.280096,-0.00162 0.717596,0.1569807 1.289085,0.3797192 1.881586,0.7333498 0.384819,0.2296772 0.833888,0.5723496 0.833888,0.6363172 0,0.03249 -0.524055,0.6418724 -0.869773,1.0113919 -0.04286,0.045809 -0.105953,0.015408 -0.345316,-0.1663827 C 14.388172,8.3178244 13.720893,7.9970214 13.260825,7.8785218 12.56926,7.7003954 11.636386,7.7014636 10.95524,7.8811618 9.4531779,8.2774328 8.2839791,9.4295407 7.8708352,10.92048 7.7666964,11.296293 7.7541436,11.412419 7.7541436,12 c 0,0.587581 0.012553,0.703707 0.1166916,1.07952 0.3928013,1.417528 1.4624367,2.529087 2.8567048,2.968672 0.513061,0.161758 0.821251,0.205259 1.444055,0.20383 0.88802,-0.002 1.626667,-0.186329 2.258732,-0.563549 0.379551,-0.226518 0.896098,-0.745281 1.155632,-1.16059 0.216313,-0.346144 0.467813,-0.932317 0.533285,-1.242927 l 0.0291,-0.138053 H 14.50957 12.870796 v -0.722124 -0.722124 h 2.455063 2.455063 l -0.05308,0.647787 c -0.06179,0.754089 -0.132328,1.118352 -0.33225,1.715808 -0.272002,0.812869 -0.666506,1.463513 -1.258238,2.07518 -0.710395,0.734327 -1.50723,1.176933 -2.562927,1.423588 -0.604237,0.141176 -1.457355,0.20028 -2.020443,0.139977 z"
     id="path192" />
</svg>
