<?xml version="1.0" encoding="UTF-8" standalone="no"?>
<svg
   viewBox="0 0 576 512"
   version="1.1"
   id="svg4"
   sodipodi:docname="house.svg"
   inkscape:version="1.2.1 (9c6d41e410, 2022-07-14)"
   xmlns:inkscape="http://www.inkscape.org/namespaces/inkscape"
   xmlns:sodipodi="http://sodipodi.sourceforge.net/DTD/sodipodi-0.dtd"
   xmlns="http://www.w3.org/2000/svg"
   xmlns:svg="http://www.w3.org/2000/svg">
  <defs
     id="defs8" />
  <sodipodi:namedview
     id="namedview6"
     pagecolor="#ffffff"
     bordercolor="#000000"
     borderopacity="0.25"
     inkscape:showpageshadow="2"
     inkscape:pageopacity="0.0"
     inkscape:pagecheckerboard="0"
     inkscape:deskcolor="#d1d1d1"
     showgrid="false"
     inkscape:zoom="1.1035156"
     inkscape:cx="288.16991"
     inkscape:cy="256.90619"
     inkscape:window-width="1366"
     inkscape:window-height="748"
     inkscape:window-x="-8"
     inkscape:window-y="-8"
     inkscape:window-maximized="1"
     inkscape:current-layer="svg4" />
  <path
     d="M511.8 287.6L512.5 447.7C512.5 450.5 512.3 453.1 512 455.8V472C512 494.1 494.1 512 472 512H456C454.9 512 453.8 511.1 452.7 511.9C451.3 511.1 449.9 512 448.5 512H392C369.9 512 352 494.1 352 472V384C352 366.3 337.7 352 320 352H256C238.3 352 224 366.3 224 384V472C224 494.1 206.1 512 184 512H128.1C126.6 512 125.1 511.9 123.6 511.8C122.4 511.9 121.2 512 120 512H104C81.91 512 64 494.1 64 472V360C64 359.1 64.03 358.1 64.09 357.2V287.6H32.05C14.02 287.6 0 273.5 0 255.5C0 246.5 3.004 238.5 10.01 231.5L266.4 8.016C273.4 1.002 281.4 0 288.4 0C295.4 0 303.4 2.004 309.5 7.014L416 100.7V64C416 46.33 430.3 32 448 32H480C497.7 32 512 46.33 512 64V185L564.8 231.5C572.8 238.5 576.9 246.5 575.8 255.5C575.8 273.5 560.8 287.6 543.8 287.6L511.8 287.6z"
     id="path2" />
  <path
     style="fill:#ffffff;stroke-width:0.906195"
     d="M 94.339063,510.11283 C 80.231526,506.3191 69.437174,495.39458 65.728937,481.1577 64.523915,476.5313 64.339823,463.30817 64.339823,381.37883 V 286.93314 L 43.723894,286.64533 C 23.928013,286.36897 22.927734,286.26856 18.576991,284.12097 12.769037,281.2541 6.4226966,274.9119 3.5860244,269.13982 1.6484324,265.1972 1.3601176,263.37333 1.36565,255.09381 c 0.00574,-8.58525 0.2439085,-9.95782 2.4373013,-14.04602 1.3370189,-2.49204 3.6617722,-5.81581 5.1661188,-7.38615 C 16.079216,226.23955 270.72343,5.1578317 274.42605,3.1922875 c 3.6764,-1.9516289 5.41259,-2.24757256 13.29076,-2.26548676 14.5308,-0.0330417 12.24906,-1.65709345 73.81485,52.53868626 29.44161,25.917168 53.91265,47.251453 54.38009,47.409543 0.50963,0.17234 0.95821,-8.898063 1.12041,-22.654872 0.26218,-22.236911 0.33877,-23.081588 2.49114,-27.473255 3.25486,-6.641172 10.3502,-13.34192 16.83753,-15.90117 4.93682,-1.947571 7.06688,-2.164668 24.39676,-2.486523 21.05359,-0.391013 27.33806,0.370446 34.34038,4.160856 5.81469,3.147537 11.78419,9.928941 14.35694,16.309606 l 2.0833,5.166788 0.45744,64.07638 0.45745,64.07638 21.29557,18.71128 c 35.59853,31.27851 35.84183,31.51549 39.0533,38.0389 2.72508,5.53542 2.86082,6.28612 2.38686,13.20102 -0.87324,12.7402 -7.35402,22.54812 -18.58923,28.1327 -4.04081,2.00853 -5.39389,2.14006 -24.80593,2.41142 l -20.53199,0.28703 0.48738,89.87934 c 0.34356,63.35841 0.18936,92.2859 -0.5226,98.03511 -2.20648,17.81796 -13.29416,31.06204 -29.54782,35.29447 -7.42043,1.93227 -91.68365,2.07959 -98.81138,0.17276 -12.13873,-3.24739 -21.11709,-10.72155 -26.55223,-22.10374 l -3.3522,-7.02013 -0.4531,-52.58083 -0.45309,-52.58083 -2.97284,-6.03621 c -3.62934,-7.36921 -10.02601,-13.40418 -17.23383,-16.25935 -4.96856,-1.96815 -6.44765,-2.0599 -38.55395,-2.39165 -36.47529,-0.3769 -45.06609,0.24834 -52.05196,3.78835 -5.90803,2.99383 -11.77185,9.03496 -14.60991,15.05167 l -2.35096,4.98407 -0.4652,52.1062 c -0.50789,56.89008 -0.35373,55.22324 -6.00308,64.90727 -2.78002,4.76546 -10.68623,12.26293 -15.54579,14.7421 -8.70227,4.43957 -11.15555,4.63077 -58.6011,4.5671 -35.83858,-0.0481 -45.385995,-0.31412 -49.328957,-1.37444 z"
     id="path183" />
</svg>
