<?xml version="1.0" encoding="UTF-8" standalone="no"?>
<svg
   fill="none"
   height="24"
   stroke-width="1.5"
   viewBox="0 0 24 24"
   width="24"
   version="1.1"
   id="svg8"
   sodipodi:docname="instagram.svg"
   inkscape:version="1.2.1 (9c6d41e410, 2022-07-14)"
   xmlns:inkscape="http://www.inkscape.org/namespaces/inkscape"
   xmlns:sodipodi="http://sodipodi.sourceforge.net/DTD/sodipodi-0.dtd"
   xmlns="http://www.w3.org/2000/svg"
   xmlns:svg="http://www.w3.org/2000/svg">
  <defs
     id="defs12" />
  <sodipodi:namedview
     id="namedview10"
     pagecolor="#ffffff"
     bordercolor="#000000"
     borderopacity="0.25"
     inkscape:showpageshadow="2"
     inkscape:pageopacity="0.0"
     inkscape:pagecheckerboard="0"
     inkscape:deskcolor="#d1d1d1"
     showgrid="false"
     inkscape:zoom="23.541667"
     inkscape:cx="11.978761"
     inkscape:cy="12.042478"
     inkscape:window-width="1366"
     inkscape:window-height="748"
     inkscape:window-x="-8"
     inkscape:window-y="-8"
     inkscape:window-maximized="1"
     inkscape:current-layer="svg8" />
  <path
     d="M12 16C14.2091 16 16 14.2091 16 12C16 9.79086 14.2091 8 12 8C9.79086 8 8 9.79086 8 12C8 14.2091 9.79086 16 12 16Z"
     stroke="currentColor"
     stroke-linecap="round"
     stroke-linejoin="round"
     id="path2" />
  <path
     d="M3 16V8C3 5.23858 5.23858 3 8 3H16C18.7614 3 21 5.23858 21 8V16C21 18.7614 18.7614 21 16 21H8C5.23858 21 3 18.7614 3 16Z"
     stroke="currentColor"
     stroke-width="1.5"
     id="path4" />
  <path
     d="M17.5 6.51L17.51 6.49889"
     stroke="currentColor"
     stroke-linecap="round"
     stroke-linejoin="round"
     id="path6" />
  <path
     style="fill:#ffffff;stroke-width:0.0637168"
     d="M 7.3911504,21.699274 C 7.0885219,21.666398 6.390682,21.504763 6.0990254,21.39999 4.1264984,20.69139 2.719289,19.011408 2.3509619,16.925405 2.2780541,16.512496 2.2725664,16.167713 2.2725664,12 c 0,-4.1677134 0.00549,-4.5124957 0.078396,-4.9254053 C 2.7736745,4.6805819 4.5198472,2.8844911 6.9238938,2.3709358 7.2604252,2.2990455 7.6052937,2.2938053 12,2.2938053 c 4.394706,0 4.739575,0.00524 5.076106,0.07713 2.097936,0.4481635 3.720093,1.8897798 4.37233,3.8857043 0.282867,0.8656033 0.278998,0.7859603 0.278998,5.7433604 0,4.167712 -0.0055,4.512495 -0.0784,4.925404 -0.137623,0.779422 -0.422605,1.525403 -0.814751,2.132723 -0.839028,1.299414 -2.043014,2.14952 -3.588269,2.533593 L 16.8,21.702579 l -4.630088,0.0064 c -2.5465492,0.0035 -4.6969916,-8.45e-4 -4.7787616,-0.0097 z M 16.48253,20.239179 c 1.344363,-0.164362 2.480781,-0.89482 3.178264,-2.042902 0.216403,-0.356206 0.359545,-0.696299 0.482716,-1.146893 l 0.0972,-0.355579 V 12 7.3061947 L 20.14351,6.9506158 C 19.720433,5.4028841 18.59963,4.2795001 17.054867,3.8548602 L 16.630088,3.7380929 H 12 7.3699115 L 6.9451327,3.8548602 C 5.3867921,4.2832323 4.2350083,5.453088 3.8341284,7.0146771 3.7648755,7.2844452 3.759292,7.6563921 3.759292,12 v 4.693805 l 0.097198,0.355579 c 0.4735811,1.732493 1.8662273,2.965264 3.5983769,3.185286 0.4320322,0.05488 8.5823861,0.05895 9.0276631,0.0045 z"
     id="path187" />
  <path
     style="fill:#ffffff;stroke-width:0.0637168"
     d="M 11.065487,16.631179 C 8.3903609,16.051894 6.7434864,13.411646 7.4314989,10.805217 7.6943929,9.8092828 8.3413138,8.8466628 9.172178,8.2150815 9.5584734,7.9214391 10.303584,7.5623599 10.810619,7.4254939 11.198066,7.3209088 11.302596,7.3108317 12,7.3108317 c 0.697208,0 0.801955,0.010091 1.188383,0.1144897 2.524098,0.6819162 4.04004,3.2694496 3.380118,5.7694616 -0.429689,1.627811 -1.751062,2.947971 -3.380118,3.377018 -0.587724,0.154789 -1.557082,0.181902 -2.122896,0.05938 z m 1.782539,-1.468813 c 0.926135,-0.251796 1.65293,-0.858418 2.102073,-1.754499 0.409367,-0.816728 0.409367,-1.999006 0,-2.815734 -0.452945,-0.9036674 -1.170625,-1.4989407 -2.124238,-1.7619292 -0.379846,-0.1047545 -1.271876,-0.1047545 -1.651722,0 -1.161923,0.3204366 -2.0501129,1.2129532 -2.3417209,2.3531302 -0.1124573,0.439704 -0.1124573,1.193628 0,1.633332 0.3241201,1.267298 1.3771429,2.213608 2.7003249,2.426675 0.239658,0.03859 1.061635,-0.01201 1.315283,-0.08097 z"
     id="path189" />
  <path
     style="fill:#ffffff;stroke-width:0.0637168"
     d="m 17.224779,7.1822715 c -0.158303,-0.07066 -0.341142,-0.2624385 -0.400838,-0.420435 -0.199155,-0.5271085 0.309653,-1.10826 0.844265,-0.9643039 0.337507,0.090881 0.554803,0.3656657 0.554803,0.7015824 0,0.516585 -0.541369,0.8870803 -0.99823,0.6831565 z"
     id="path191" />
</svg>
