<?xml version="1.0" encoding="UTF-8" standalone="no"?>
<svg
   fill="none"
   height="24"
   stroke-width="1.5"
   viewBox="0 0 24 24"
   width="24"
   version="1.1"
   id="svg10"
   sodipodi:docname="linkedin.svg"
   inkscape:version="1.2.1 (9c6d41e410, 2022-07-14)"
   xmlns:inkscape="http://www.inkscape.org/namespaces/inkscape"
   xmlns:sodipodi="http://sodipodi.sourceforge.net/DTD/sodipodi-0.dtd"
   xmlns="http://www.w3.org/2000/svg"
   xmlns:svg="http://www.w3.org/2000/svg">
  <defs
     id="defs14" />
  <sodipodi:namedview
     id="namedview12"
     pagecolor="#ffffff"
     bordercolor="#000000"
     borderopacity="0.25"
     inkscape:showpageshadow="2"
     inkscape:pageopacity="0.0"
     inkscape:pagecheckerboard="0"
     inkscape:deskcolor="#d1d1d1"
     showgrid="false"
     inkscape:zoom="23.541667"
     inkscape:cx="11.978761"
     inkscape:cy="12.042478"
     inkscape:window-width="1366"
     inkscape:window-height="748"
     inkscape:window-x="-8"
     inkscape:window-y="-8"
     inkscape:window-maximized="1"
     inkscape:current-layer="svg10" />
  <path
     d="M21 8V16C21 18.7614 18.7614 21 16 21H8C5.23858 21 3 18.7614 3 16V8C3 5.23858 5.23858 3 8 3H16C18.7614 3 21 5.23858 21 8Z"
     stroke="currentColor"
     stroke-linecap="round"
     stroke-linejoin="round"
     id="path2" />
  <path
     d="M7 17V13.5V10"
     stroke="currentColor"
     stroke-linecap="round"
     stroke-linejoin="round"
     id="path4" />
  <path
     d="M11 17V13.75M11 10V13.75M11 13.75C11 10 17 10 17 13.75V17"
     stroke="currentColor"
     stroke-linecap="round"
     stroke-linejoin="round"
     id="path6" />
  <path
     d="M7 7.01L7.01 6.99889"
     stroke="currentColor"
     stroke-linecap="round"
     stroke-linejoin="round"
     id="path8" />
  <path
     style="fill:#ffffff;stroke-width:0.0637168"
     d="m 10.725664,17.654228 c -0.196572,-0.09072 -0.336282,-0.23031 -0.400711,-0.400356 -0.03081,-0.08133 -0.04531,-1.289445 -0.04531,-3.776799 V 9.8198534 l 0.102029,-0.1741001 c 0.288439,-0.4921826 1.008585,-0.474498 1.253183,0.030774 0.07482,0.1545607 0.08904,0.2631591 0.08904,0.6802467 0,0.272978 0.01046,0.496323 0.02324,0.496323 0.01278,0 0.160923,-0.07478 0.329203,-0.166181 1.011762,-0.549527 2.387239,-0.617351 3.482307,-0.17171 1.006881,0.409754 1.72285,1.188926 2.034887,2.214522 0.09122,0.299812 0.09515,0.384836 0.109455,2.367486 0.01085,1.503954 0.0015,2.088755 -0.03488,2.176532 -0.07327,0.176897 -0.351259,0.409121 -0.529848,0.442624 -0.313752,0.05886 -0.651772,-0.123091 -0.788681,-0.424536 -0.07261,-0.159861 -0.07881,-0.314403 -0.08025,-1.999799 -0.0017,-1.989383 -0.01842,-2.166401 -0.243648,-2.580226 -0.234516,-0.430884 -0.798729,-0.830855 -1.370817,-0.971775 -0.128495,-0.03165 -0.434336,-0.05708 -0.679646,-0.0565 -1.045627,0.0025 -1.819685,0.48318 -2.135159,1.326036 -0.08707,0.232637 -0.09218,0.332823 -0.114279,2.23999 -0.01618,1.39691 -0.0379,2.021972 -0.07232,2.081415 -0.119169,0.205788 -0.44568,0.404679 -0.660943,0.402607 -0.05332,-5.13e-4 -0.1734,-0.03622 -0.266851,-0.07935 z"
     id="path258" />
  <path
     style="fill:#ffffff;stroke-width:0.0637168"
     d="M 6.7319536,17.675317 C 6.5804756,17.609317 6.340126,17.347875 6.3072803,17.21338 6.2945473,17.16124 6.2894923,15.455575 6.2960473,13.423009 l 0.011918,-3.6955754 0.099152,-0.1390147 c 0.1917338,-0.2688165 0.5689182,-0.376736 0.8685835,-0.2485178 0.165302,0.070728 0.3486095,0.2594278 0.4100926,0.4221562 0.03066,0.081148 0.04488,1.2825177 0.044247,3.7380527 -8.819e-4,3.420197 -0.00521,3.627784 -0.078957,3.788386 -0.092806,0.202102 -0.1875353,0.292669 -0.398177,0.38068 -0.1889439,0.07895 -0.3495214,0.08084 -0.5209534,0.0061 z"
     id="path260" />
  <path
     style="fill:#ffffff;stroke-width:0.0637168"
     d="M 7.3911504,21.699274 C 7.0885219,21.666398 6.390682,21.504763 6.0990254,21.39999 4.1264984,20.69139 2.719289,19.011408 2.3509619,16.925405 2.2780541,16.512496 2.2725664,16.167713 2.2725664,12 c 0,-4.1677134 0.00549,-4.5124957 0.078396,-4.9254053 C 2.7736745,4.6805819 4.5198472,2.8844911 6.9238938,2.3709358 7.2604252,2.2990455 7.6052937,2.2938053 12,2.2938053 c 4.394706,0 4.739575,0.00524 5.076106,0.07713 2.097936,0.4481635 3.720093,1.8897798 4.37233,3.8857043 0.282867,0.8656033 0.278998,0.7859603 0.278998,5.7433604 0,4.167712 -0.0055,4.512495 -0.0784,4.925404 -0.137623,0.779422 -0.422605,1.525403 -0.814751,2.132723 -0.839028,1.299414 -2.043014,2.14952 -3.588269,2.533593 L 16.8,21.702579 l -4.630088,0.0064 c -2.5465492,0.0035 -4.6969916,-8.45e-4 -4.7787616,-0.0097 z M 16.48253,20.239179 c 1.344363,-0.164362 2.480781,-0.89482 3.178264,-2.042902 0.216403,-0.356206 0.359545,-0.696299 0.482716,-1.146893 l 0.0972,-0.355579 V 12 7.3061947 L 20.14351,6.9506158 C 19.720433,5.4028841 18.59963,4.2795001 17.054867,3.8548602 L 16.630088,3.7380929 H 12 7.3699115 L 6.9451327,3.8548602 C 5.3867921,4.2832323 4.2350083,5.453088 3.8341284,7.0146771 3.7648755,7.2844452 3.759292,7.6563921 3.759292,12 v 4.693805 l 0.097198,0.355579 c 0.4735811,1.732493 1.8662273,2.965264 3.5983769,3.185286 0.4320322,0.05488 8.5823861,0.05895 9.0276631,0.0045 z"
     id="path262" />
  <path
     style="fill:#ffffff;stroke-width:0.0637168"
     d="M 6.7818133,7.6902521 C 6.4672995,7.5781124 6.2867257,7.3295839 6.2867257,7.0088496 c 0,-0.3172681 0.1635908,-0.5466298 0.4859464,-0.6813185 C 7.3530836,6.0850197 7.9412296,6.748946 7.6505378,7.3185064 7.5478747,7.5196569 7.4376865,7.6182652 7.2346703,7.6906699 7.0325625,7.7627506 6.9850243,7.7627067 6.7818133,7.6902536 Z"
     id="path264" />
</svg>
