<?xml version="1.0" encoding="UTF-8" standalone="no"?>
<svg
   viewBox="0 0 512 512"
   version="1.1"
   id="svg4"
   sodipodi:docname="phone.svg"
   inkscape:version="1.2.1 (9c6d41e410, 2022-07-14)"
   xmlns:inkscape="http://www.inkscape.org/namespaces/inkscape"
   xmlns:sodipodi="http://sodipodi.sourceforge.net/DTD/sodipodi-0.dtd"
   xmlns="http://www.w3.org/2000/svg"
   xmlns:svg="http://www.w3.org/2000/svg">
  <defs
     id="defs8" />
  <sodipodi:namedview
     id="namedview6"
     pagecolor="#ffffff"
     bordercolor="#000000"
     borderopacity="0.25"
     inkscape:showpageshadow="2"
     inkscape:pageopacity="0.0"
     inkscape:pagecheckerboard="0"
     inkscape:deskcolor="#d1d1d1"
     showgrid="false"
     inkscape:zoom="1.1035156"
     inkscape:cx="256.4531"
     inkscape:cy="256.90619"
     inkscape:window-width="1366"
     inkscape:window-height="748"
     inkscape:window-x="-8"
     inkscape:window-y="-8"
     inkscape:window-maximized="1"
     inkscape:current-layer="svg4" />
  <path
     d="M511.2 387l-23.25 100.8c-3.266 14.25-15.79 24.22-30.46 24.22C205.2 512 0 306.8 0 54.5c0-14.66 9.969-27.2 24.22-30.45l100.8-23.25C139.7-2.602 154.7 5.018 160.8 18.92l46.52 108.5c5.438 12.78 1.77 27.67-8.98 36.45L144.5 207.1c33.98 69.22 90.26 125.5 159.5 159.5l44.08-53.8c8.688-10.78 23.69-14.51 36.47-8.975l108.5 46.51C506.1 357.2 514.6 372.4 511.2 387z"
     id="path2" />
  <path
     style="fill:#ffffff;stroke-width:0.906195"
     d="M 426.3646,510.5709 C 292.54012,500.80125 171.58647,434.57977 90.961848,326.93968 63.236796,289.92461 39.647327,245.11242 24.758501,201.17522 9.3179696,155.60993 1.5490973,111.10986 1.4233346,67.511504 L 1.359292,45.309735 3.7702275,40.742381 C 6.651943,35.283166 13.195201,29.017535 18.4178,26.716297 20.498983,25.799263 46.261239,19.482885 75.667257,12.679901 134.58461,-0.95043054 134.75034,-0.97274615 144.36714,3.4299671 c 6.29334,2.8811869 11.4411,7.5485279 14.4038,13.0595569 1.28707,2.394124 13.08766,29.431892 26.22353,60.083927 l 23.88341,55.730969 -0.0135,7.24956 c -0.0145,7.73277 -1.81637,13.19322 -6.28857,19.05656 -1.19342,1.56466 -14.53623,12.76219 -29.65068,24.88337 -15.11446,12.1212 -27.81639,22.33164 -28.22653,22.68988 -0.94799,0.82802 6.47255,15.59079 14.32024,28.48934 14.78445,24.29992 30.49062,44.16885 51.63434,65.31952 17.79406,17.79991 34.01163,31.13127 53.95572,44.3533 15.7061,10.41243 37.25384,22.52667 39.24047,22.06116 0.71462,-0.16745 10.97584,-12.1303 22.80273,-26.5841 11.82687,-14.45381 22.78387,-27.62235 24.34888,-29.26343 5.8117,-6.09422 17.02148,-9.67846 25.88667,-8.27705 3.47704,0.54964 95.89839,39.28537 114.9768,48.18919 5.86851,2.73881 12.22483,8.97387 15.5956,15.29807 5.63984,10.58144 5.60504,10.88423 -8.11663,70.60026 -7.02145,30.55696 -12.91718,54.21574 -14.27042,57.26529 -2.71411,6.11627 -9.15352,12.54407 -15.42944,15.40164 -3.7564,1.71037 -6.12386,1.98708 -18.35855,2.14569 -7.72531,0.10016 -18.93947,-0.17514 -24.92035,-0.61177 z"
     id="path252" />
</svg>
