<?xml version="1.0" encoding="UTF-8" standalone="no"?>
<svg
   fill="none"
   height="24"
   stroke-width="1.5"
   viewBox="0 0 24 24"
   width="24"
   version="1.1"
   id="svg224"
   sodipodi:docname="twitter.svg"
   inkscape:version="1.2.1 (9c6d41e410, 2022-07-14)"
   xmlns:inkscape="http://www.inkscape.org/namespaces/inkscape"
   xmlns:sodipodi="http://sodipodi.sourceforge.net/DTD/sodipodi-0.dtd"
   xmlns="http://www.w3.org/2000/svg"
   xmlns:svg="http://www.w3.org/2000/svg">
  <defs
     id="defs228" />
  <sodipodi:namedview
     id="namedview226"
     pagecolor="#ffffff"
     bordercolor="#000000"
     borderopacity="0.25"
     inkscape:showpageshadow="2"
     inkscape:pageopacity="0.0"
     inkscape:pagecheckerboard="0"
     inkscape:deskcolor="#d1d1d1"
     showgrid="false"
     inkscape:zoom="23.541667"
     inkscape:cx="11.978761"
     inkscape:cy="12.042478"
     inkscape:window-width="1366"
     inkscape:window-height="748"
     inkscape:window-x="-8"
     inkscape:window-y="-8"
     inkscape:window-maximized="1"
     inkscape:current-layer="svg224" />
  <path
     d="M23 3.01006C23 3.01006 20.9821 4.20217 19.86 4.54006C19.2577 3.84757 18.4573 3.35675 17.567 3.13398C16.6767 2.91122 15.7395 2.96725 14.8821 3.29451C14.0247 3.62177 13.2884 4.20446 12.773 4.96377C12.2575 5.72309 11.9877 6.62239 12 7.54006V8.54006C10.2426 8.58562 8.50127 8.19587 6.93101 7.4055C5.36074 6.61513 4.01032 5.44869 3 4.01006C3 4.01006 -1 13.0101 8 17.0101C5.94053 18.408 3.48716 19.109 1 19.0101C10 24.0101 21 19.0101 21 7.51006C20.9991 7.23151 20.9723 6.95365 20.92 6.68006C21.9406 5.67355 23 3.01006 23 3.01006Z"
     stroke="currentColor"
     stroke-linecap="round"
     stroke-linejoin="round"
     id="path222" />
  <path
     style="fill:#ffffff;stroke-width:0.0637168"
     d="M 7.5610619,21.659558 C 5.2177793,21.499593 3.2604552,20.968085 1.2267981,19.939498 0.81309213,19.730253 0.51653717,19.552167 0.44987437,19.472943 0.14683563,19.112802 0.25383987,18.586941 0.67304181,18.37621 0.8026365,18.311063 0.97234437,18.294037 1.699115,18.273267 3.0461197,18.23477 4.0871914,18.042034 5.2247788,17.620553 5.6818097,17.451221 6.457155,17.097531 6.4556236,17.059078 6.4550672,17.045081 6.2806849,16.931048 6.0681099,16.805672 4.8085249,16.062775 3.4835352,14.775866 2.7602882,13.59292 1.879789,12.152772 1.4579085,10.6736 1.4130316,8.8692505 1.372571,7.2424639 1.5819418,5.8712617 2.1016236,4.3595539 2.3418335,3.6608048 2.3826413,3.580666 2.5716576,3.4364963 c 0.3057536,-0.2332097 0.737154,-0.1733014 0.989293,0.1373824 0.073281,0.090296 0.2622989,0.3266523 0.4200405,0.5252363 1.3628548,1.7157256 3.459426,3.0227835 5.5782093,3.4776039 0.4368434,0.093773 1.3169166,0.2179714 1.5445536,0.2179714 h 0.140111 l 0.02832,-0.4662011 c 0.08884,-1.4628158 0.643717,-2.6869247 1.64485,-3.6287186 1.89957,-1.786979 4.766558,-1.9045612 6.811697,-0.2793642 0.175749,0.1396614 0.343727,0.2537551 0.373285,0.2535415 0.08523,-6.16e-4 1.439863,-0.6748413 2.092678,-1.041561 0.52574,-0.2953349 0.619941,-0.3341539 0.812475,-0.3348078 0.397911,-0.00135 0.710607,0.3155229 0.708877,0.7183501 -0.0019,0.4330256 -1.210084,2.8325323 -1.839446,3.6530973 l -0.162899,0.2123894 -0.0031,0.8283186 c -0.02114,5.6166845 -2.740973,10.2657925 -7.331818,12.5325335 -1.484789,0.733118 -2.893333,1.148516 -4.5238937,1.334154 -0.5794093,0.06597 -1.8635495,0.112508 -2.2938054,0.08314 z m 2.4493251,-1.562222 c 1.8633,-0.284362 3.472263,-0.878291 4.878109,-1.800691 2.976483,-1.952924 4.776309,-4.974802 5.268258,-8.8453176 0.09147,-0.7196886 0.131115,-2.1525532 0.06936,-2.5071623 -0.0664,-0.3813256 -0.01955,-0.5129102 0.34438,-0.9671675 C 20.900169,5.5655003 21.39251,4.7907422 21.350824,4.7490559 21.336894,4.7351249 21.176993,4.7912129 20.99549,4.873695 20.222524,5.2249613 19.804829,5.3212318 19.575501,5.2009747 19.520831,5.1723067 19.332146,5.0120327 19.156197,4.8448092 18.76305,4.4711597 18.53799,4.3141566 18.085353,4.0977807 c -0.549258,-0.2625643 -0.93395,-0.3476545 -1.5827,-0.3500782 -0.37796,-0.00141 -0.644202,0.020355 -0.84373,0.06898 C 14.518139,4.094693 13.623799,4.8006174 13.121772,5.81932 12.81622,6.4393389 12.778175,6.6340562 12.74826,7.7309735 12.718078,8.8377112 12.69058,8.9478312 12.395671,9.1429924 12.182064,9.2843512 11.831511,9.3084255 10.958789,9.2416711 8.1734179,9.0286173 5.7382165,7.9320115 3.7485647,5.9948043 3.4856735,5.7388426 3.2633989,5.5373354 3.2546211,5.5470106 c -0.00878,0.00968 -0.057918,0.1979612 -0.1092006,0.4184135 -0.4244052,1.8244216 -0.3847494,3.7565732 0.108056,5.2648159 0.6856503,2.098449 2.1771602,3.696072 4.5583489,4.88265 0.5373613,0.267774 0.6765927,0.356416 0.7790184,0.49596 0.1118026,0.152319 0.1230724,0.196486 0.1088465,0.426585 -0.021733,0.351517 -0.115832,0.466902 -0.658684,0.807678 -0.9596428,0.602416 -2.094895,1.110908 -3.1197311,1.397361 -0.2886482,0.08068 -0.6203902,0.173479 -0.7372044,0.206218 l -0.2123894,0.05953 0.1274336,0.05235 c 0.4283253,0.175952 1.9726985,0.500674 2.8247788,0.59394 0.545294,0.05969 2.5711663,0.02347 3.0864932,-0.05517 z"
     id="path240" />
</svg>
